<svg id="landscape" xmlns="http://www.w3.org/2000/svg" xmlns:xlink="http://www.w3.org/1999/xlink" viewBox="0 0 1920 1080" shape-rendering="geometricPrecision" text-rendering="geometricPrecision"><ellipse class="sun" rx="200" ry="200" transform="translate(1378.326272 415.466102)" fill="#ff963a" stroke-width="0"/><path class="back-1" d="M0,215.466102q120.063559,7.627119,213.495763,173.516949c93.432204,165.88983,158.262712,184.110169,268.855932,226.48305s64.830507,84.322033,347.033897,162.499999s221.18644,40.042372,390.88983,13.347457s230.72034,24.788136,381.355933,7.627119s158.32627-36.228814,238.347456-102.966102s47.669491-114.40678,83.898305-181.144068q36.228814-66.737288,0,681.483051h-1923.87712L0,215.466102Z" transform="translate(.000004-116.313557)" fill="#3d81b1" stroke-width="3.84"/><path class="back-2" d="M-61.080508,238.347458q52.409742-28.601694,91.525424,11.440678c39.115682,40.042372,32.864087,60.336298,96.856802,103.2059s67.125121,80.14017,137.677101,146.158499s87.560044,46.794623,152.573517,69.568314s76.637506,7.81863,147.086462,74.523806s64.010008,71.912676,176.503754,109.824558s142.202426-9.433406,218.857446-18.959047s132.521186-11.440679,231.673729,5.720338s152.542372-19.067798,209.745762-26.694916s142.265835.80031,226.16414,14.147767s127.909017,4.195775,180.42606-52.283364s48.79472-72.181464,111.990302-106.279141q63.195582-34.097678,76.280374,184.348363l-72.403251,326.930778h-1923.877117L-61.080508,238.347458Z" transform="translate(.000009-25.494978)" fill="#4e93c5" stroke-width="3.84"/><path class="back-3" d="M0,374.566726Q67.42198,414.76478,139.068639,517.730882c71.646659,102.966102,27.505606,104.568242,125.910184,143.92166s146.473987-26.44446,254.553464,51.483054s70.49198,138.178277,221.610269,116.418585s184.701464,88.861901,317.192338,51.518467s161.855634-48.051456,253.553709-25.945942s139.539036-53.298699,221.559695-74.601344s148.598449,21.692869,188.270671,25.494985s78.446113,1.961153,118.259841-41.184209q39.813728-43.145362,80.021185-51.700542l-3.877123,489.037621L0.000004,1188.445148L0,374.566726Z" transform="translate(3.877128-76.484959)" fill="#5da7dc" stroke-width="3.84"/><path class="back-4" d="M0,540c86.117517,39.661017,123.508583,110.436793,173.453399,152.273484s132.163126,49.990198,230.220767,85.290949s84.92066,115.835202,193.897529,149.719989c265.118646,82.434823,162.844739,110.993367,348.550127,233.427838c115.655919,76.251268,227.966006,185.525901,102.212021,211.294757C871.467334,1408.249587,454.678704,1348.391843,0,1330.629423Q-86.117519,500.338981,0,540Z" transform="translate(13.878179-218.669234)" fill="#83c7f9" stroke-width="3.84"/><path class="back-4" d="M1166.66754,1306.513844q202.223838-142.549566,270.639091-234.756595c68.415253-92.207029,132.960771-65.031871,207.882199-131.39724c41.104947-36.410744,151.599439-15.689221,178.464907-50.989973q26.865468-35.300752,100.223385-149.370037l1.91597,566.513845h-759.125552Z" transform="translate(13.878177-218.669233)" fill="#83c7f9" stroke-width="3.84"/><path class="back-5" d="M3.877129,349.07174c56.213942,8.993031,52.848572,115.588808,165.262383,194.154126C354.178383,672.54839,334.412483,653.474771,386.068796,753.069218s110.831229,66.774411,199.90818,132.628534c88.437983,65.381738,59.069097,139.971711,170.854808,183.117073Q868.617495,1111.960187,960,1420.977807l274.065091,33.80716l253.553708-242.284656q41.450106-84.975003,90.707472-157.995302c49.257366-73.020299,150.022916-172.046943,229.683426-201.416997q79.66051-29.370054,129.745601-182.387213l1.915969,800.987748L-0.000002,1502.678443L3.877129,349.07174Z" transform="translate(.000003 0.000005)" fill="#9cd4fd" stroke-width="3.84"/><path class="back-6" d="M-92.865984,485.64635Q32.622388,544.663339,109.976983,661.652543c77.354595,116.989204,64.30341,133.470363,185.939386,191.435474s176.835157,33.802105,268.722438,107.863403s276.245589,73.360321,395.361192,119.048579s206.734005,38.083708,355.76573,7.844611s194.073287,11.878193,343.301274-61.283682s152.399614-107.056012,260.932993-157.766753q108.533379-50.710741,187.416755,92.157245-36.219562,305.076899-242.284655,316.345953c-206.065093,11.269054-1180.433378,59.162532-1490.332355,8.45179s-392.825705-3.871812-435.880244-173.788975q-43.054539-169.917163-31.785481-626.313838Z" transform="translate(2.817267-42.25895)" fill="#b4ddfb" stroke-width="3.84"/></svg>